HIERARCHY
ROOT Hips
{
	OFFSET 0.000000 0.000000 0.000000 
	CHANNELS 6 Xposition Yposition Zposition Zrotation Yrotation Xrotation
	JOINT LeftUpLeg
	{
		OFFSET 1.363060 -1.794630 0.839290 
		CHANNELS 3 Zrotation Yrotation Xrotation
		JOINT LeftLeg
		{
			OFFSET 2.448110 -6.726130 0.000000 
			CHANNELS 3 Zrotation Yrotation Xrotation
			JOINT LeftFoot
			{
				OFFSET 2.562200 -7.039590 0.000000 
				CHANNELS 3 Zrotation Yrotation Xrotation
				JOINT LeftToeBase
				{
					OFFSET 0.157640 -0.433110 2.322550 
					CHANNELS 3 Zrotation Yrotation Xrotation
					End Site
					{
						OFFSET 0.000000 0.000000 0.000000 
					}
				}
			}
		}
	}
	JOINT RightUpLeg
	{
		OFFSET -1.305520 -1.794630 0.839290 
		CHANNELS 3 Zrotation Yrotation Xrotation
		JOINT RightLeg
		{
			OFFSET -2.542530 -6.985550 0.000000 
			CHANNELS 3 Zrotation Yrotation Xrotation
			JOINT RightFoot
			{
				OFFSET -2.568260 -7.056230 0.000000 
				CHANNELS 3 Zrotation Yrotation Xrotation
				JOINT RightToeBase
				{
					OFFSET -0.164730 -0.452590 2.363150 
					CHANNELS 3 Zrotation Yrotation Xrotation
					End Site
					{
						OFFSET 0.000000 0.000000 0.000000 
					}
				}
			}
		}
	}
	JOINT Spine
	{
		OFFSET 0.028270 2.035590 -0.193380 
		CHANNELS 3 Zrotation Yrotation Xrotation
		JOINT Spine1
		{
			OFFSET 0.056720 2.048850 -0.042750 
			CHANNELS 3 Zrotation Yrotation Xrotation
			JOINT Neck1
			{
				OFFSET -0.054170 1.746240 0.172020 
				CHANNELS 3 Zrotation Yrotation Xrotation
				JOINT Head
				{
					OFFSET 0.104070 1.761360 -0.123970 
					CHANNELS 3 Zrotation Yrotation Xrotation
					End Site
					{
						OFFSET 0.000000 0.000000 0.000000 
					}
				}
			}
			JOINT LeftArm
			{
				OFFSET 3.362410 1.200890 -0.311210 
				CHANNELS 3 Zrotation Yrotation Xrotation
				JOINT LeftForeArm
				{
					OFFSET 4.983000 -0.000000 -0.000000 
					CHANNELS 3 Zrotation Yrotation Xrotation
					JOINT LeftHand
					{
						OFFSET 3.483560 -0.000000 -0.000000 
						CHANNELS 3 Zrotation Yrotation Xrotation
						JOINT LeftHandIndex1
						{
							OFFSET 0.715260 -0.000000 -0.000000 
							CHANNELS 3 Zrotation Yrotation Xrotation
							End Site
							{
								OFFSET 0.000000 0.000000 0.000000 
							}
						}
					}
				}
			}
			JOINT RightArm
			{
				OFFSET -3.136600 1.374050 -0.404650 
				CHANNELS 3 Zrotation Yrotation Xrotation
				JOINT RightForeArm
				{
					OFFSET -5.241900 -0.000000 -0.000000 
					CHANNELS 3 Zrotation Yrotation Xrotation
					JOINT RightHand
					{
						OFFSET -3.444170 -0.000000 -0.000000 
						CHANNELS 3 Zrotation Yrotation Xrotation
						JOINT RightHandIndex1
						{
							OFFSET -0.622530 -0.000000 -0.000000 
							CHANNELS 3 Zrotation Yrotation Xrotation
							End Site
							{
								OFFSET 0.000000 0.000000 0.000000 
							}
						}
					}
				}
			}
		}
	}
}
MOTION
Frames: 15
Frame Time: 0.041667
-10.660538 18.206166 -5.227373 -2.362057 40.431799 13.860836 -8.426849 -16.734962 -32.147080 7.117070 14.036400 50.286099 3.064411 -13.740009 8.488301 0.676800 -5.260500 -14.652900 13.355531 4.747264 -30.168711 -2.634056 -10.294315 32.594906 4.794542 -14.602740 1.818604 -0.271400 3.351300 -9.258400 4.553426 2.657941 3.018990 1.070126 1.556443 -2.282292 1.091824 -5.598016 29.605247 0.022700 -2.630500 13.388000 -87.740310 10.507499 21.551512 26.980292 -35.373031 -8.965701 -0.002637 -0.403675 -16.728724 -7.125000 0.000000 0.000000 71.565602 5.309753 22.011692 -22.549098 30.967813 -7.159005 0.606140 -0.160952 -8.982970 7.125000 0.000000 0.000000 
-10.690066 18.211288 -5.275180 -2.397135 40.053270 13.719969 -8.369365 -16.807451 -31.292753 7.103901 13.994962 50.287234 3.122131 -14.328172 8.983777 0.568200 -4.827500 -13.417300 13.235515 5.135450 -30.131947 -2.654355 -10.304526 32.626481 4.783695 -14.599883 2.136122 -0.306900 3.561800 -9.846900 4.689643 2.525184 3.366549 1.145861 1.501560 -2.010571 0.965301 -5.602002 29.442513 -0.049500 -2.643700 13.345700 -87.728059 10.434943 21.957419 26.899632 -35.288823 -8.918608 -0.008336 -0.402230 -16.867731 -7.125000 0.000000 0.000000 71.490910 5.607333 21.900895 -22.606710 31.015937 -7.190980 0.608445 -0.169950 -8.766067 7.125000 0.000000 0.000000 
-10.718088 18.214000 -5.329014 -2.557052 39.635422 13.518054 -8.242618 -16.853113 -30.436861 7.072574 13.948096 50.210046 3.168753 -14.730574 9.273922 0.537300 -4.696500 -13.044800 13.154103 5.580159 -30.095502 -2.664644 -10.303863 32.641265 4.721441 -14.472856 2.434917 -0.295700 3.496400 -9.664100 4.832969 2.422688 3.473560 1.111246 1.451927 -1.933609 0.895322 -5.560850 29.448367 -0.082500 -2.633400 13.362000 -87.795446 10.492366 22.049150 26.761273 -35.148934 -8.834255 -0.011250 -0.399430 -16.763768 -7.125000 0.000000 0.000000 71.374173 5.675966 22.035348 -22.700227 31.117288 -7.247690 0.613791 -0.181109 -8.954502 7.125000 0.000000 0.000000 
-10.750428 18.223441 -5.375114 -2.546307 39.190613 13.364746 -8.243306 -16.862094 -29.496535 7.009078 13.874443 50.020467 3.234633 -15.226539 9.424217 0.539800 -4.707300 -13.075700 12.976562 6.075048 -29.952316 -2.688021 -10.304187 32.614649 4.851875 -14.813020 2.796005 -0.436700 4.240600 -11.754600 4.931115 2.333478 3.481716 1.179483 1.407146 -2.022032 0.840936 -5.484193 29.579376 -0.110400 -2.597700 13.431600 -87.806102 10.639471 22.107145 26.576089 -34.960953 -8.720147 -0.011068 -0.397219 -16.627055 -7.125000 0.000000 0.000000 71.335660 5.646021 22.063993 -22.771786 31.201279 -7.291386 0.609392 -0.183592 -8.977402 7.125000 0.000000 0.000000 
-10.780760 18.226554 -5.421716 -2.635412 38.754411 13.125297 -8.135960 -16.908054 -28.519849 6.916406 13.785795 49.753892 3.286789 -15.700994 9.829370 0.480800 -4.446800 -12.337100 12.891467 6.573644 -29.802967 -2.698011 -10.295785 32.611701 4.856257 -14.833582 2.971158 -0.413100 4.125800 -11.430800 5.030252 2.259320 3.612664 1.204067 1.372832 -2.012618 0.729391 -5.473931 29.669747 -0.185500 -2.588000 13.498700 -87.771930 10.673455 22.223722 26.420166 -34.804734 -8.626811 -0.015102 -0.398746 -16.494131 -7.125000 0.000000 0.000000 71.335461 5.782803 21.970429 -22.696201 31.115373 -7.247953 0.610073 -0.189572 -8.681484 7.125000 0.000000 0.000000 
-10.806973 18.229366 -5.471632 -2.749716 38.352249 12.925944 -8.009923 -16.940544 -27.563651 6.790137 13.677660 49.382447 3.315310 -15.980427 10.339915 0.486300 -4.471800 -12.407900 12.853192 6.906144 -29.771222 -2.692458 -10.290518 32.619677 4.767094 -14.617560 2.979386 -0.364500 3.878400 -10.734700 5.152023 2.168355 3.721830 1.226883 1.329924 -1.950664 0.582117 -5.486095 29.558506 -0.275400 -2.595200 13.437800 -87.745468 10.702472 22.366518 26.286073 -34.666930 -8.545597 -0.015758 -0.398643 -16.339821 -7.125000 0.000000 0.000000 71.297879 5.885548 22.024652 -22.708600 31.123970 -7.254136 0.618064 -0.188688 -8.555868 7.125000 0.000000 0.000000 
-10.834091 18.227458 -5.524662 -2.865355 37.993629 12.803709 -7.887522 -16.999395 -26.680220 6.664978 13.566941 48.975496 3.334284 -16.005691 10.529305 0.678500 -5.266800 -14.671000 12.851963 7.102570 -29.884388 -2.687228 -10.294119 32.633829 4.648763 -14.346666 3.097108 -0.321400 3.644100 -10.077600 5.297038 2.041513 3.806620 1.267400 1.268132 -1.839378 0.558901 -5.488122 29.547934 -0.287500 -2.602200 13.445500 -87.764340 10.757102 22.370877 26.252560 -34.629447 -8.524300 -0.016187 -0.397716 -16.335523 -7.125000 0.000000 0.000000 71.257379 6.003454 22.072595 -22.816816 31.232710 -7.313308 0.622302 -0.179279 -8.662624 7.125000 0.000000 0.000000 
-10.858296 18.224445 -5.576889 -2.815634 37.548074 12.807325 -7.926352 -17.048790 -25.735994 6.522528 13.435194 48.498697 3.347953 -15.922750 10.589799 0.782100 -5.646000 -15.760800 12.724536 7.277934 -30.020186 -2.688516 -10.309584 32.644191 4.560954 -14.165053 3.346611 -0.315000 3.607900 -9.976000 5.286439 1.981598 3.746076 1.304679 1.228845 -1.826594 0.645579 -5.465396 29.638600 -0.244700 -2.585000 13.477300 -87.735616 10.876187 22.298129 26.119413 -34.492139 -8.442469 -0.018076 -0.395148 -15.949488 -7.125000 0.000000 0.000000 71.299147 5.968792 21.966773 -22.878112 31.298896 -7.348454 0.617611 -0.176980 -8.686163 7.125000 0.000000 0.000000 
-10.881697 18.220528 -5.628814 -2.733463 37.194937 12.799365 -7.981110 -17.089323 -24.797909 6.351465 13.284808 47.959057 3.370387 -16.051230 10.954908 0.673400 -5.247300 -14.615200 12.586637 7.430747 -30.136899 -2.707830 -10.331207 32.635067 4.607682 -14.336404 3.849429 -0.403600 4.078600 -11.297900 5.336608 1.862638 3.818867 1.407603 1.168152 -1.703871 0.663433 -5.455460 29.625849 -0.235700 -2.580500 13.462600 -87.666417 10.895094 22.470012 26.015930 -34.387553 -8.382971 -0.026600 -0.394214 -15.870694 -7.125000 0.000000 0.000000 71.285526 6.019543 21.798872 -22.992278 31.417557 -7.412304 0.600360 -0.169775 -8.771595 7.125000 0.000000 0.000000 
-10.904396 18.214000 -5.688573 -2.734044 36.881507 12.698176 -7.971600 -17.146214 -23.811969 6.162881 13.122718 47.339809 3.397248 -16.086205 11.154887 0.665500 -5.217200 -14.529100 12.516700 7.513751 -30.241198 -2.727061 -10.354274 32.625093 4.632747 -14.476937 4.472102 -0.458700 4.344500 -12.048000 5.288637 1.808731 3.721713 1.342161 1.128607 -1.808240 0.722560 -5.517623 29.675282 -0.213400 -2.602900 13.463100 -87.491565 11.080811 22.803299 25.988852 -34.370041 -8.373593 -0.033598 -0.395267 -15.857529 -7.125000 0.000000 0.000000 71.391188 5.949909 21.521652 -23.074854 31.506076 -7.457640 0.591167 -0.156075 -8.954198 7.125000 0.000000 0.000000 
-10.926692 18.208476 -5.748935 -2.931068 36.515341 12.533346 -7.790904 -17.129128 -22.906699 5.951779 12.956521 46.632662 3.427165 -16.012813 11.275347 0.647500 -5.147500 -14.329700 12.602672 7.601633 -30.386666 -2.729536 -10.364025 32.636704 4.532577 -14.287145 4.870976 -0.485900 4.469600 -12.401700 5.288110 1.802718 3.626445 1.216140 1.112873 -1.851250 0.804559 -5.577331 29.773214 -0.191700 -2.614200 13.503600 -87.287010 11.147308 23.067619 25.889006 -34.271181 -8.315149 -0.033741 -0.394076 -15.865290 -7.125000 0.000000 0.000000 71.480283 5.858135 21.468044 -23.137581 31.572736 -7.492958 0.596322 -0.149210 -9.279200 7.125000 0.000000 0.000000 
-10.950194 18.201044 -5.806083 -3.089197 36.157493 12.386524 -7.614375 -17.147648 -21.975383 5.713292 12.763133 45.826143 3.459206 -15.934665 11.418647 0.582100 -4.885500 -13.582200 12.635253 7.810239 -30.507367 -2.728767 -10.371928 32.676462 4.422292 -14.025958 4.923815 -0.485500 4.468100 -12.397500 5.283916 1.728438 3.731354 1.144988 1.070412 -1.721638 0.776958 -5.590087 29.877689 -0.233600 -2.604500 13.579700 -87.164266 10.991990 23.052650 25.777286 -34.153661 -8.245300 -0.033035 -0.389653 -15.880933 -7.125000 0.000000 0.000000 71.589963 5.955180 21.417857 -23.145180 31.571080 -7.496456 0.605637 -0.158131 -9.295416 7.125000 0.000000 0.000000 
-10.972290 18.196725 -5.865942 -3.091918 35.859650 12.378826 -7.588095 -17.237187 -21.029168 5.450249 12.538749 44.929812 3.476207 -15.754435 11.593922 0.505800 -4.558900 -12.654600 12.495074 7.999230 -30.649722 -2.716095 -10.389817 32.708854 4.258070 -13.630140 4.900723 -0.374800 3.931900 -10.885100 5.279487 1.691754 3.191857 1.091754 1.025180 -2.153439 0.777014 -5.626359 30.058547 -0.230800 -2.617500 13.596700 -87.123017 11.397899 23.025249 25.692012 -34.075858 -8.197943 -0.035901 -0.386526 -15.931364 -7.125000 0.000000 0.000000 71.619324 5.465813 21.535897 -23.197988 31.657377 -7.536799 0.621193 -0.162264 -9.308865 7.125000 0.000000 0.000000 
-10.995290 18.187284 -5.930523 -3.206410 35.554207 12.218865 -7.484899 -17.248482 -20.066977 5.159242 12.292223 43.932447 3.516421 -15.699895 11.765021 0.455100 -4.327900 -12.001000 12.434236 8.204732 -30.734061 -2.717265 -10.410367 32.773142 4.111399 -13.283413 4.960865 -0.312100 3.591500 -9.930000 5.608130 1.607366 3.219830 1.219173 0.988719 -2.144754 0.688465 -5.619533 29.958942 -0.258000 -2.632300 13.517200 -87.328744 11.310671 22.847384 25.557436 -33.931103 -8.115804 -0.036476 -0.388773 -15.679428 -7.125000 0.000000 0.000000 71.389104 5.489784 21.551695 -23.178774 31.646600 -7.532091 0.631225 -0.174795 -9.451088 7.125000 0.000000 0.000000 
-11.015678 18.176738 -5.992993 -3.437254 35.305057 12.104172 -7.228826 -17.346728 -19.205832 4.856734 12.033947 42.861969 3.551961 -15.503145 11.829953 0.442500 -4.268100 -11.832200 12.501178 8.457917 -30.918954 -2.749414 -10.445637 32.882159 4.093320 -13.266311 5.147292 -0.384800 3.983500 -11.030100 5.683363 1.469176 3.048388 1.138576 0.907742 -2.151545 0.651601 -5.589012 29.962128 -0.288300 -2.606500 13.459400 -87.219986 11.491965 22.706486 25.581719 -33.958507 -8.128906 -0.034398 -0.387364 -15.582530 -7.125000 0.000000 0.000000 71.529292 5.341313 21.567005 -23.236595 31.709163 -7.564067 0.628819 -0.167029 -9.507344 7.125000 0.000000 0.000000 
